<svg id="svg" version="1.1" xmlns="http://www.w3.org/2000/svg" xmlns:xlink="http://www.w3.org/1999/xlink" width="400" height="400" viewBox="0, 0, 400,400"><g id="svgg"><path id="path0" d="M276.530 53.278 C 276.440 53.363,274.603 53.622,272.446 53.854 C 253.958 55.843,235.103 63.600,220.831 75.089 C 217.472 77.793,218.019 77.758,215.094 75.453 C 175.366 44.135,112.247 47.055,73.488 82.003 C 53.316 100.190,39.335 128.207,38.043 153.027 C 37.895 155.874,37.630 158.203,37.455 158.203 C 36.784 158.203,34.295 160.735,33.571 162.154 C 32.835 163.597,32.813 164.819,32.813 203.903 C 32.813 247.501,32.706 245.304,34.951 247.966 C 37.389 250.858,34.746 250.667,74.609 250.830 L 110.352 250.977 111.989 250.101 C 113.811 249.127,115.289 247.360,115.962 245.352 C 116.595 243.462,116.593 165.363,115.960 163.251 C 115.412 161.420,113.623 159.194,111.977 158.293 C 110.847 157.675,108.252 157.601,81.458 157.422 L 52.174 157.227 52.286 153.711 C 52.780 138.163,61.006 117.657,72.514 103.283 C 96.916 72.804,141.058 60.160,179.362 72.678 C 192.937 77.114,203.134 82.959,213.228 92.090 C 218.093 96.491,217.542 96.606,225.468 89.529 C 260.034 58.663,321.315 59.865,356.723 92.103 C 361.248 96.223,366.395 95.685,368.736 90.849 C 371.295 85.564,368.526 81.773,356.215 73.708 C 339.495 62.753,321.627 56.240,301.367 53.715 C 297.139 53.188,277.001 52.834,276.530 53.278 " stroke="none" fill="#3b769b" fill-rule="evenodd"></path><path id="path1" d="M277.344 77.946 C 254.861 80.724,236.930 90.918,220.142 110.464 C 218.243 112.674,216.561 114.432,216.403 114.370 C 216.246 114.308,214.534 112.324,212.600 109.961 C 189.695 81.976,155.494 71.305,121.484 81.532 C 93.023 90.091,69.398 115.949,64.455 143.954 C 63.606 148.762,60.667 148.213,88.491 148.438 L 112.713 148.633 115.372 149.942 C 120.378 152.407,124.126 157.390,125.347 163.203 C 126.038 166.494,125.923 242.845,125.223 245.775 C 122.976 255.174,116.439 259.375,104.063 259.375 C 99.343 259.375,97.677 259.500,97.548 259.863 C 97.016 261.359,103.207 270.310,111.260 279.688 C 120.143 290.032,142.143 312.716,152.942 322.665 C 154.452 324.057,156.738 326.163,158.020 327.346 C 159.302 328.528,162.021 330.989,164.062 332.814 C 166.102 334.640,168.563 336.858,169.530 337.745 C 170.498 338.632,175.771 343.195,181.250 347.887 C 186.729 352.578,191.299 356.511,191.406 356.627 C 191.514 356.742,192.920 357.979,194.531 359.375 C 196.143 360.771,197.549 362.001,197.656 362.109 C 197.764 362.217,199.343 363.623,201.167 365.234 C 202.990 366.846,204.799 368.448,205.187 368.795 C 209.146 372.332,217.120 373.143,222.410 370.547 C 225.230 369.163,244.395 353.750,254.297 344.903 C 336.997 271.011,365.763 231.095,373.050 180.115 C 374.576 169.438,373.772 152.437,371.256 142.188 C 361.004 100.423,320.371 72.628,277.344 77.946 " stroke="none" fill="#d34c43" fill-rule="evenodd"></path></g></svg>